<svg width="48" height="48" viewBox="0 0 48 48" fill="none" xmlns="http://www.w3.org/2000/svg">
<g clip-path="url(#clip0_75_322)">
<path fill-rule="evenodd" clip-rule="evenodd" d="M24.4969 2.39966C30.2429 2.39966 35.6429 4.63366 39.6989 8.69166C48.0829 17.0757 48.0829 30.7157 39.6989 39.0997C35.5889 43.2117 30.0549 45.3877 24.4489 45.3877C21.3929 45.3877 18.3169 44.7417 15.4389 43.4097C14.5909 43.0697 13.7969 42.7497 13.2269 42.7497C12.5709 42.7537 11.6889 43.0577 10.8369 43.3517C9.08888 43.9517 6.91287 44.6997 5.30287 43.0957C3.69887 41.4897 4.43887 39.3197 5.03487 37.5737C5.32887 36.7137 5.63087 35.8257 5.63087 35.1537C5.63087 34.6017 5.36487 33.8977 4.95687 32.8837C1.21087 24.7937 2.94287 15.0437 9.29688 8.69366C13.3529 4.63566 18.7509 2.39966 24.4969 2.39966ZM24.4989 5.39966C19.5529 5.39966 14.9069 7.32366 11.4169 10.8157C5.94887 16.2797 4.46087 24.6697 7.71088 31.6957C8.17887 32.8537 8.63087 33.9817 8.63087 35.1537C8.63087 36.3237 8.22888 37.5017 7.87488 38.5417C7.58288 39.3977 7.14087 40.6897 7.42487 40.9737C7.70287 41.2617 9.00287 40.8077 9.86088 40.5137C10.8909 40.1617 12.0589 39.7577 13.2169 39.7497C14.3769 39.7497 15.4709 40.1897 16.6289 40.6557C23.7229 43.9357 32.1129 42.4437 37.5789 36.9797C44.7909 29.7637 44.7909 18.0257 37.5789 10.8137C34.0869 7.32166 29.4429 5.39966 24.4989 5.39966Z" fill="white"/>
<path d="M34.3926 24.7251C34.3926 23.6191 33.4966 22.7251 32.3926 22.7251H32.3746C31.2706 22.7251 30.3846 23.6191 30.3846 24.7251C30.3846 25.8311 31.2886 26.7251 32.3926 26.7251C33.4966 26.7251 34.3926 25.8311 34.3926 24.7251Z" fill="#FFD05A"/>
<path d="M26.375 24.7251C26.375 23.6191 25.479 22.7251 24.375 22.7251H24.357C23.251 22.7251 22.367 23.6191 22.367 24.7251C22.367 25.8311 23.271 26.7251 24.375 26.7251C25.479 26.7251 26.375 25.8311 26.375 24.7251Z" fill="#FFD05A"/>
<path d="M18.3566 24.7251C18.3566 23.6191 17.4606 22.7251 16.3566 22.7251H16.3386C15.2346 22.7251 14.3486 23.6191 14.3486 24.7251C14.3486 25.8311 15.2526 26.7251 16.3566 26.7251C17.4606 26.7251 18.3566 25.8311 18.3566 24.7251Z" fill="#FFD05A"/>
</g>
<defs>
<clipPath id="clip0_75_322">
<rect width="48" height="48" fill="white"/>
</clipPath>
</defs>
</svg>
