<svg width="48" height="64" viewBox="0 0 48 64" fill="none" xmlns="http://www.w3.org/2000/svg">
<g clip-path="url(#clip0_75_246)">
<path d="M43.3133 51.7897H37.7603C37.4657 51.7897 37.1833 51.9067 36.975 52.115C36.7667 52.3233 36.6497 52.6058 36.6497 52.9003C36.6497 53.1949 36.7667 53.4773 36.975 53.6856C37.1833 53.8939 37.4657 54.0109 37.7603 54.0109H42.2027V56.3765C42.2025 57.3925 41.854 58.3777 41.2154 59.1679C40.5767 59.9581 39.6866 60.5055 38.6932 60.7189H36.8607C36.7244 60.6937 36.5906 60.6566 36.4609 60.6078L36.1277 60.5079C35.9986 60.4517 35.8726 60.3886 35.7501 60.3191C35.6458 60.2761 35.5455 60.2241 35.4503 60.1636C35.3286 60.0923 35.2134 60.0106 35.106 59.9193C35.0161 59.859 34.9307 59.7921 34.8505 59.7194C34.7415 59.6251 34.6377 59.525 34.5396 59.4195L34.3285 59.1863C34.2335 59.0687 34.1446 58.9464 34.062 58.8198L33.9065 58.5977C33.8273 58.4578 33.7568 58.3131 33.6955 58.1645C33.6955 58.0757 33.6178 57.9979 33.5844 57.9091C33.5283 57.7421 33.4838 57.5714 33.4512 57.3982C33.4239 57.3258 33.4016 57.2516 33.3845 57.1761C33.3383 56.9121 33.316 56.6445 33.3179 56.3765V25.5241C33.3179 25.2295 33.2009 24.9471 32.9926 24.7388C32.7843 24.5305 32.5019 24.4135 32.2073 24.4135C31.9128 24.4135 31.6303 24.5305 31.422 24.7388C31.2137 24.9471 31.0967 25.2295 31.0967 25.5241V56.3765C31.0946 56.7753 31.1318 57.1733 31.2078 57.5648C31.2345 57.6923 31.2679 57.8184 31.3077 57.9424C31.3744 58.1979 31.4299 58.4533 31.5187 58.6976C31.6076 58.942 31.652 58.9753 31.7075 59.1085C31.7631 59.2418 31.8963 59.5306 32.0074 59.7305C32.1185 59.9304 32.1962 59.997 32.2851 60.1303C32.4019 60.3169 32.5318 60.4951 32.6738 60.6634H5.73068C4.74657 60.4521 3.86339 59.9129 3.2258 59.134C2.5882 58.3552 2.234 57.3829 2.22119 56.3765V18.7828C2.22119 18.6973 2.25513 18.6154 2.31553 18.555C2.37593 18.4946 2.45785 18.4607 2.54327 18.4607H21.5234C21.8179 18.4607 22.1004 18.3437 22.3087 18.1354C22.517 17.9271 22.634 17.6446 22.634 17.3501C22.634 17.0556 22.517 16.7731 22.3087 16.5648C22.1004 16.3565 21.8179 16.2395 21.5234 16.2395H2.54327C1.86965 16.2424 1.22446 16.5113 0.748134 16.9876C0.271811 17.464 0.00292245 18.1092 0 18.7828L0 56.3765C0.000679276 57.9255 0.541004 59.4259 1.52808 60.6197C2.51515 61.8135 3.8873 62.6262 5.40861 62.9179H5.61962H36.7163C37.0605 62.9866 37.4096 63.0275 37.7603 63.0401C38.1815 63.0379 38.6016 62.997 39.0153 62.9179C40.5366 62.6262 41.9087 61.8135 42.8958 60.6197C43.8829 59.4259 44.4232 57.9255 44.4239 56.3765V52.9003C44.4239 52.6058 44.3069 52.3233 44.0986 52.115C43.8903 51.9067 43.6078 51.7897 43.3133 51.7897Z" fill="#2563EB"/>
<path d="M47.6667 1.16866C47.4586 0.961807 47.1771 0.845703 46.8837 0.845703C46.5903 0.845703 46.3088 0.961807 46.1007 1.16866L45.3122 1.95718C44.8893 1.56534 44.334 1.34764 43.7574 1.34764C43.1808 1.34764 42.6255 1.56534 42.2026 1.95718L40.9809 3.15663C40.0882 2.61023 39.0376 2.37995 37.9982 2.50283C36.9588 2.62571 35.9909 3.09459 35.2502 3.83409L31.2854 7.79892C31.0785 8.007 30.9624 8.28849 30.9624 8.58189C30.9624 8.87529 31.0785 9.15678 31.2854 9.36486C31.4904 9.57411 31.7699 9.69387 32.0628 9.69804C32.2097 9.69743 32.3551 9.66767 32.4905 9.61048C32.6258 9.55328 32.7485 9.4698 32.8513 9.36486L36.8162 5.40003C37.1398 5.084 37.5435 4.8622 37.9838 4.75849C38.4241 4.65478 38.8843 4.67307 39.315 4.81141L30.3081 13.8184L22.2118 21.9479C22.1291 22.0386 22.0582 22.1393 22.0008 22.2478L19.5242 27.8785C19.4342 28.0836 19.4084 28.311 19.45 28.531C19.4916 28.751 19.5988 28.9532 19.7574 29.1113C19.9642 29.3165 20.2434 29.4321 20.5348 29.4333C20.6907 29.4318 20.8451 29.4017 20.9901 29.3445L26.6098 26.8568C26.7228 26.8072 26.8248 26.7355 26.9096 26.6458L35.017 18.5495L46.8782 6.67722C47.084 6.46967 47.2469 6.22353 47.3574 5.9529C47.468 5.68228 47.524 5.39249 47.5223 5.10017C47.5263 4.80918 47.4712 4.5204 47.3605 4.25127C47.2498 3.98213 47.0857 3.73821 46.8782 3.53423L47.6667 2.7457C47.7708 2.64246 47.8534 2.51963 47.9098 2.38429C47.9662 2.24895 47.9952 2.10379 47.9952 1.95718C47.9952 1.81057 47.9662 1.66541 47.9098 1.53007C47.8534 1.39473 47.7708 1.2719 47.6667 1.16866ZM31.0966 16.1728L31.874 16.9613L32.6625 17.7499L30.1859 20.2265L28.6088 18.6161L31.0966 16.1728ZM27.0429 20.2265L28.6088 21.8035L26.1322 24.2802L25.3437 23.5028L24.5552 22.7142L27.0429 20.2265ZM22.6783 26.1571L23.3446 24.6467L24.1998 25.4907L22.6783 26.1571ZM34.2396 16.1617L33.451 15.3843L32.6625 14.5958L43.7685 3.4898L45.3122 5.05575L34.2396 16.1617Z" fill="#2563EB" fill-opacity="0.26"/>
<path d="M14.2491 27.2234H8.00757C7.71302 27.2234 7.43054 27.3404 7.22226 27.5487C7.01398 27.757 6.89697 28.0394 6.89697 28.334C6.89697 28.6285 7.01398 28.911 7.22226 29.1193C7.43054 29.3276 7.71302 29.4446 8.00757 29.4446H14.2491C14.5437 29.4446 14.8262 29.3276 15.0344 29.1193C15.2427 28.911 15.3597 28.6285 15.3597 28.334C15.3597 28.0394 15.2427 27.757 15.0344 27.5487C14.8262 27.3404 14.5437 27.2234 14.2491 27.2234Z" fill="#2563EB"/>
<path d="M14.8933 51.7898C14.5988 51.7898 14.3163 51.9068 14.108 52.1151C13.8997 52.3234 13.7827 52.6058 13.7827 52.9004C13.7827 53.1949 13.8997 53.4774 14.108 53.6857C14.3163 53.894 14.5988 54.011 14.8933 54.011H23.3227C23.6173 54.011 23.8998 53.894 24.1081 53.6857C24.3163 53.4774 24.4333 53.1949 24.4333 52.9004C24.4333 52.6058 24.3163 52.3234 24.1081 52.1151C23.8998 51.9068 23.6173 51.7898 23.3227 51.7898H14.8933Z" fill="#2563EB"/>
<path d="M23.9891 36.4968H8.00757C7.71302 36.4968 7.43054 36.6138 7.22226 36.8221C7.01398 37.0304 6.89697 37.3129 6.89697 37.6074C6.89697 37.902 7.01398 38.1845 7.22226 38.3927C7.43054 38.601 7.71302 38.718 8.00757 38.718H23.9891C24.2836 38.718 24.5661 38.601 24.7744 38.3927C24.9826 38.1845 25.0997 37.902 25.0997 37.6074C25.0997 37.3129 24.9826 37.0304 24.7744 36.8221C24.5661 36.6138 24.2836 36.4968 23.9891 36.4968Z" fill="#2563EB"/>
<path d="M25.0997 44.1599C25.0997 43.8654 24.9826 43.5829 24.7744 43.3746C24.5661 43.1663 24.2836 43.0493 23.9891 43.0493H8.00757C7.71302 43.0493 7.43054 43.1663 7.22226 43.3746C7.01398 43.5829 6.89697 43.8654 6.89697 44.1599C6.89697 44.4545 7.01398 44.7369 7.22226 44.9452C7.43054 45.1535 7.71302 45.2705 8.00757 45.2705H23.9891C24.2836 45.2705 24.5661 45.1535 24.7744 44.9452C24.9826 44.7369 25.0997 44.4545 25.0997 44.1599Z" fill="#2563EB"/>
</g>
<defs>
<clipPath id="clip0_75_246">
<rect width="48" height="62.1934" fill="white" transform="translate(0 0.84668)"/>
</clipPath>
</defs>
</svg>
