<svg width="68" height="63" viewBox="0 0 68 63" fill="none" xmlns="http://www.w3.org/2000/svg">
<circle cx="30" cy="30.4468" r="29.5" fill="url(#paint0_linear_75_275)" fill-opacity="0.11"/>
<g clip-path="url(#clip0_75_275)">
<path d="M59 44.5217C58.7348 44.5217 58.4804 44.627 58.2929 44.8146C58.1054 45.0021 58 45.2565 58 45.5217V52.0817C58.0014 52.1333 57.9922 52.1846 57.9731 52.2325C57.954 52.2805 57.9253 52.324 57.8888 52.3605C57.8523 52.397 57.8088 52.4257 57.7609 52.4448C57.7129 52.4639 57.6616 52.4731 57.61 52.4717H14.39C14.3384 52.4731 14.2871 52.4639 14.2391 52.4448C14.1912 52.4257 14.1477 52.397 14.1112 52.3605C14.0747 52.324 14.046 52.2805 14.0269 52.2325C14.0078 52.1846 13.9986 52.1333 14 52.0817V26.8617C14 26.7582 14.0411 26.659 14.1142 26.5859C14.1874 26.5128 14.2866 26.4717 14.39 26.4717H21.84C22.1052 26.4717 22.3596 26.3663 22.5471 26.1788C22.7346 25.9912 22.84 25.7369 22.84 25.4717C22.84 25.2065 22.7346 24.9521 22.5471 24.7646C22.3596 24.577 22.1052 24.4717 21.84 24.4717H14.39C13.7561 24.4717 13.1482 24.7235 12.7 25.1717C12.2518 25.6199 12 26.2278 12 26.8617V52.0817C12 52.7155 12.2518 53.3235 12.7 53.7717C13.1482 54.2199 13.7561 54.4717 14.39 54.4717H28.15C28.9456 54.4717 29.7087 54.7878 30.2713 55.3504C30.8339 55.913 31.15 56.676 31.15 57.4717C31.15 58.2673 30.8339 59.0304 30.2713 59.593C29.7087 60.1556 28.9456 60.4717 28.15 60.4717C27.8848 60.4717 27.6304 60.577 27.4429 60.7646C27.2554 60.9521 27.15 61.2065 27.15 61.4717C27.15 61.7369 27.2554 61.9912 27.4429 62.1788C27.6304 62.3663 27.8848 62.4717 28.15 62.4717H44.15C44.4152 62.4717 44.6696 62.3663 44.8571 62.1788C45.0446 61.9912 45.15 61.7369 45.15 61.4717C45.15 61.2065 45.0446 60.9521 44.8571 60.7646C44.6696 60.577 44.4152 60.4717 44.15 60.4717C43.3544 60.4717 42.5913 60.1556 42.0287 59.593C41.4661 59.0304 41.15 58.2673 41.15 57.4717C41.15 56.676 41.4661 55.913 42.0287 55.3504C42.5913 54.7878 43.3544 54.4717 44.15 54.4717H57.61C58.2439 54.4717 58.8518 54.2199 59.3 53.7717C59.7482 53.3235 60 52.7155 60 52.0817V45.5217C60 45.2565 59.8946 45.0021 59.7071 44.8146C59.5196 44.627 59.2652 44.5217 59 44.5217ZM40.15 60.5217H32.15C32.7991 59.6562 33.15 58.6035 33.15 57.5217C33.15 56.4398 32.7991 55.3872 32.15 54.5217H40.15C39.5009 55.3872 39.15 56.4398 39.15 57.5217C39.15 58.6035 39.5009 59.6562 40.15 60.5217Z" fill="#2563EB"/>
<path d="M67 20.4717H49C46.0826 20.4717 43.2847 21.6306 41.2218 23.6935C39.1589 25.7564 38 28.5543 38 31.4717C38 34.3891 39.1589 37.187 41.2218 39.2499C43.2847 41.3128 46.0826 42.4717 49 42.4717H57C59.9174 42.4717 62.7153 41.3128 64.7782 39.2499C66.8411 37.187 68 34.3891 68 31.4717V21.4717C68 21.2065 67.8946 20.9521 67.7071 20.7646C67.5196 20.577 67.2652 20.4717 67 20.4717ZM66 31.4717C66 33.8586 65.0518 36.1478 63.364 37.8356C61.6761 39.5235 59.3869 40.4717 57 40.4717H49C46.6131 40.4717 44.3239 39.5235 42.636 37.8356C40.9482 36.1478 40 33.8586 40 31.4717C40 29.0847 40.9482 26.7955 42.636 25.1077C44.3239 23.4199 46.6131 22.4717 49 22.4717H66V31.4717Z" fill="#2563EB" fill-opacity="0.26"/>
<path d="M47 27.6517C47 27.9169 47.1054 28.1713 47.2929 28.3588C47.4804 28.5464 47.7348 28.6517 48 28.6517H53C53.2652 28.6517 53.5196 28.5464 53.7071 28.3588C53.8946 28.1713 54 27.9169 54 27.6517C54 27.3865 53.8946 27.1322 53.7071 26.9446C53.5196 26.7571 53.2652 26.6517 53 26.6517H48C47.7348 26.6517 47.4804 26.7571 47.2929 26.9446C47.1054 27.1322 47 27.3865 47 27.6517Z" fill="#2563EB"/>
<path d="M52 34.6816C52 34.9469 52.1054 35.2012 52.2929 35.3887C52.4804 35.5763 52.7348 35.6816 53 35.6816H59.59C59.8552 35.6816 60.1096 35.5763 60.2971 35.3887C60.4846 35.2012 60.59 34.9469 60.59 34.6816C60.59 34.4164 60.4846 34.1621 60.2971 33.9745C60.1096 33.787 59.8552 33.6816 59.59 33.6816H53C52.7348 33.6816 52.4804 33.787 52.2929 33.9745C52.1054 34.1621 52 34.4164 52 34.6816Z" fill="#2563EB"/>
<path d="M22.89 40.2717C23.0462 40.3685 23.2262 40.4204 23.41 40.4217C23.6531 40.4213 23.8877 40.3325 24.07 40.1717L29.17 35.7017C29.2372 35.641 29.2946 35.5701 29.34 35.4917L37.73 21.8417C37.7994 21.7295 37.8459 21.6048 37.8668 21.4745C37.8878 21.3443 37.8828 21.2113 37.8521 21.083C37.8215 20.9547 37.7657 20.8338 37.6881 20.7272C37.6105 20.6205 37.5126 20.5303 37.4 20.4617L34 18.3717C33.8896 18.2974 33.7656 18.2459 33.6351 18.2201C33.5046 18.1943 33.3703 18.1949 33.24 18.2217C33.1121 18.2523 32.9916 18.3077 32.8852 18.385C32.7788 18.4622 32.6887 18.5596 32.62 18.6717L24.25 32.3317C24.2181 32.388 24.1945 32.4486 24.18 32.5117C24.1782 32.545 24.1782 32.5784 24.18 32.6117L22.44 39.2217C22.3988 39.4217 22.4198 39.6295 22.5003 39.8173C22.5807 40.005 22.7167 40.1636 22.89 40.2717ZM33.8 20.6017L35.5 21.6017L28.18 33.5717L26.47 32.5717L33.8 20.6017ZM25.73 34.4217L26.83 35.0917L25.19 36.5317L25.73 34.4217Z" fill="#2563EB" fill-opacity="0.26"/>
<path d="M22.7999 42.5317C22.5492 42.4457 22.2747 42.4627 22.0366 42.5789C21.7984 42.6952 21.6162 42.9012 21.5299 43.1517C21.4299 43.4317 20.6199 45.9517 22.1299 47.5717C22.5351 47.9653 23.019 48.2686 23.5499 48.4616C24.0808 48.6546 24.6465 48.7331 25.2099 48.6917C26.1804 48.6734 27.1447 48.5323 28.0799 48.2717C30.4953 47.6092 32.9651 47.1641 35.4599 46.9417C35.7235 46.9212 35.9684 46.7972 36.1408 46.5966C36.3132 46.3961 36.3992 46.1354 36.3799 45.8717C36.3594 45.608 36.2353 45.3632 36.0348 45.1908C35.8343 45.0183 35.5736 44.9324 35.3099 44.9517C32.6938 45.1793 30.1034 45.6412 27.5699 46.3317C25.5699 46.8617 24.1699 46.8217 23.5699 46.2217C22.9699 45.6217 23.2499 44.2217 23.3899 43.7917C23.4743 43.5462 23.46 43.2774 23.3499 43.0423C23.2398 42.8071 23.0425 42.624 22.7999 42.5317Z" fill="#2563EB" fill-opacity="0.26"/>
</g>
<defs>
<linearGradient id="paint0_linear_75_275" x1="18.1048" y1="3.32581" x2="87.0968" y2="94.6806" gradientUnits="userSpaceOnUse">
<stop stop-color="#2749C9"/>
<stop offset="1" stop-color="white" stop-opacity="0"/>
</linearGradient>
<clipPath id="clip0_75_275">
<rect width="56" height="44.25" fill="white" transform="translate(12 18.2217)"/>
</clipPath>
</defs>
</svg>
