<svg width="59" height="60" viewBox="0 0 59 60" fill="none" xmlns="http://www.w3.org/2000/svg">
<circle cx="29.5" cy="30.4468" r="29.5" fill="url(#paint0_linear_75_288)" fill-opacity="0.11"/>
<path d="M12 51.0385C12 52.772 12.2062 54.0354 12.6683 54.9883C13.1118 55.903 13.832 56.6149 15.0492 57.1728C16.2995 57.7459 18.0586 58.1478 20.5317 58.3998C22.9953 58.6507 26.0984 58.7468 30 58.7468C33.9016 58.7468 37.0047 58.6507 39.4683 58.3998C41.9414 58.1478 43.7005 57.7459 44.9508 57.1728C46.168 56.6149 46.8882 55.903 47.3317 54.9883C47.7938 54.0354 48 52.772 48 51.0385C48 49.305 47.7938 48.0416 47.3317 47.0887C46.8882 46.174 46.168 45.4621 44.9508 44.9041C43.7005 44.3311 41.9414 43.9291 39.4683 43.6772C37.0047 43.4263 33.9016 43.3302 30 43.3302C26.0984 43.3302 22.9953 43.4263 20.5317 43.6772C18.0586 43.9291 16.2995 44.3311 15.0492 44.9041C13.832 45.4621 13.1118 46.174 12.6683 47.0887C12.2062 48.0416 12 49.305 12 51.0385Z" stroke="#070707" stroke-width="2" stroke-linecap="round" stroke-linejoin="round"/>
<path d="M20.636 28.3968C20.636 33.6237 24.8361 37.8468 29.9996 37.8468C35.1632 37.8468 39.3633 33.6237 39.3633 28.3968C39.3633 23.1698 35.1632 18.9468 29.9996 18.9468C24.8361 18.9468 20.636 23.1698 20.636 28.3968Z" stroke="#006EFF" stroke-width="2"/>
<defs>
<linearGradient id="paint0_linear_75_288" x1="17.6048" y1="3.32581" x2="86.5968" y2="94.6806" gradientUnits="userSpaceOnUse">
<stop stop-color="#2749C9"/>
<stop offset="1" stop-color="white" stop-opacity="0"/>
</linearGradient>
</defs>
</svg>
