<svg width="59" height="75" viewBox="0 0 59 75" fill="none" xmlns="http://www.w3.org/2000/svg">
<circle cx="29.5" cy="29.9468" r="29.5" fill="url(#paint0_linear_75_260)" fill-opacity="0.11"/>
<g clip-path="url(#clip0_75_260)">
<path d="M51.9902 59.1147C51.6764 55.8562 50.6769 52.7016 49.0579 49.8592C47.4389 47.0168 45.2371 44.5512 42.5979 42.6254V41.4683C42.583 37.0869 41.3366 32.7986 39.0019 29.0956C36.6672 25.3926 33.3388 22.4251 29.3988 20.5336C29.2735 20.4763 29.1375 20.4467 28.9998 20.4467C28.8621 20.4467 28.7261 20.4763 28.6009 20.5336C24.6594 22.4258 21.33 25.3948 18.9952 29.0997C16.6604 32.8045 15.4148 37.0949 15.4017 41.4779V42.6254C12.7608 44.5503 10.5571 47.0154 8.9364 49.8579C7.31568 52.7003 6.31477 55.8554 5.9998 59.1147C5.99008 59.2437 6.00635 59.3734 6.04764 59.496C6.08893 59.6186 6.1544 59.7316 6.24014 59.8283C6.32866 59.924 6.43566 60.0008 6.55464 60.0538C6.67363 60.1068 6.80211 60.1351 6.9323 60.1368H15.5843L16.2861 62.5861C16.6241 63.7526 17.3291 64.7782 18.2959 65.5098C19.2626 66.2415 20.4393 66.6399 21.6504 66.6458H23.1405C24.334 69.4971 26.1012 72.0708 28.3317 74.2058C28.5044 74.3586 28.7262 74.4442 28.9565 74.4468C29.1881 74.4507 29.4121 74.3643 29.5814 74.2058C31.8393 72.08 33.6303 69.5051 34.8399 66.6458H36.3396C37.5448 66.6348 38.7143 66.2337 39.6739 65.5022C40.6336 64.7707 41.3321 63.7479 41.6654 62.5861L42.3672 60.1368H51.1827C51.4035 60.1211 51.61 60.021 51.7595 59.8572C51.8516 59.7591 51.9203 59.6413 51.9603 59.5126C52.0002 59.384 52.0105 59.2479 51.9902 59.1147ZM15.4017 44.9975V58.2758H7.97055C8.72843 53.0813 11.3754 48.3516 15.4017 44.9975ZM28.995 72.2193C27.4462 70.5785 26.1734 68.6961 25.2266 66.6458H32.7442C31.8067 68.6967 30.5401 70.5796 28.995 72.2193ZM39.887 62.075C39.6634 62.8556 39.1945 63.5428 38.5501 64.0345C37.9058 64.5262 37.1204 64.7961 36.3108 64.804H21.6888C20.8809 64.8004 20.0959 64.5345 19.4512 64.0461C18.8066 63.5576 18.337 62.8729 18.1127 62.0943L17.2571 59.0858V41.4779C17.2609 37.5164 18.36 33.6336 20.4322 30.2612C22.5045 26.8888 25.4686 24.1591 28.995 22.3754C32.5239 24.1568 35.4906 26.8859 37.5647 30.2585C39.6388 33.6312 40.7389 37.5152 40.7425 41.4779V59.0665L39.887 62.075ZM42.5979 58.2758V44.9975C46.6185 48.355 49.2614 53.0835 50.0195 58.2758H42.5979Z" fill="#344456"/>
<path d="M28.9855 55.4214C30.2708 55.4214 31.5272 55.0391 32.5959 54.3228C33.6646 53.6066 34.4976 52.5885 34.9894 51.3974C35.4813 50.2063 35.61 48.8956 35.3592 47.6311C35.1085 46.3667 34.4895 45.2052 33.5807 44.2935C32.6718 43.3819 31.5139 42.7611 30.2533 42.5095C28.9927 42.258 27.686 42.3871 26.4985 42.8805C25.3111 43.3739 24.2961 44.2094 23.582 45.2813C22.868 46.3533 22.4868 47.6136 22.4868 48.9029C22.4868 50.6317 23.1715 52.2897 24.3902 53.5122C24.9937 54.1175 25.7101 54.5976 26.4985 54.9252C27.287 55.2528 28.132 55.4214 28.9855 55.4214ZM28.9855 44.2454C29.9042 44.2434 30.8029 44.515 31.5677 45.0256C32.3326 45.5362 32.9292 46.2629 33.2821 47.1138C33.635 47.9647 33.7284 48.9015 33.5503 49.8056C33.3722 50.7097 32.9307 51.5405 32.2818 52.1928C31.6328 52.8451 30.8054 53.2896 29.9045 53.4701C29.0035 53.6506 28.0694 53.559 27.2204 53.2067C26.3714 52.8545 25.6456 52.2575 25.135 51.4914C24.6244 50.7253 24.3518 49.8244 24.3518 48.9029C24.3518 47.6693 24.8397 46.4861 25.7084 45.6129C26.5771 44.7397 27.7557 44.2479 28.9855 44.2454Z" fill="#2563EB"/>
<path d="M28.9857 38.5271C29.9049 38.5291 30.8039 38.2573 31.569 37.7462C32.334 37.2352 32.9307 36.5079 33.2833 35.6565C33.6359 34.805 33.7287 33.8678 33.5498 32.9634C33.371 32.059 32.9285 31.2283 32.2786 30.5763C31.6286 29.9244 30.8004 29.4806 29.8988 29.3012C28.9972 29.1218 28.0628 29.2148 27.214 29.5685C26.3651 29.9222 25.6401 30.5207 25.1306 31.2881C24.6211 32.0555 24.3502 32.9573 24.3521 33.8793C24.3521 35.112 24.8402 36.2942 25.7092 37.1658C26.5782 38.0375 27.7568 38.5271 28.9857 38.5271ZM28.9857 31.0829C29.5367 31.0848 30.0747 31.2504 30.5319 31.5588C30.9891 31.8673 31.345 32.3047 31.5545 32.8158C31.764 33.327 31.8179 33.8889 31.7092 34.4307C31.6006 34.9726 31.3343 35.4699 30.944 35.86C30.5538 36.2502 30.057 36.5156 29.5165 36.6227C28.9759 36.7298 28.4159 36.6739 27.907 36.4619C27.3982 36.25 26.9633 35.8916 26.6574 35.4319C26.3515 34.9722 26.1882 34.432 26.1882 33.8793C26.1844 33.5088 26.254 33.1413 26.393 32.798C26.532 32.4548 26.7376 32.1426 26.9979 31.8798C27.2582 31.6169 27.5679 31.4085 27.9092 31.2667C28.2504 31.125 28.6164 31.0526 28.9857 31.0539V31.0829Z" fill="#2563EB"/>
<path d="M9.32604 63.8396C9.07108 63.8396 8.82656 63.9412 8.64627 64.122C8.46599 64.3029 8.3647 64.5481 8.3647 64.8039V67.4075C8.32596 67.5505 8.32059 67.7005 8.34903 67.8459C8.37747 67.9914 8.43894 68.1283 8.52867 68.246C8.61841 68.3637 8.73399 68.4591 8.86644 68.5248C8.99889 68.5905 9.14465 68.6246 9.29239 68.6246C9.44014 68.6246 9.5859 68.5905 9.71835 68.5248C9.8508 68.4591 9.96638 68.3637 10.0561 68.246C10.1458 68.1283 10.2073 67.9914 10.2358 67.8459C10.2642 67.7005 10.2588 67.5505 10.2201 67.4075V64.8039C10.2207 64.5594 10.1287 64.3238 9.96271 64.1448C9.79673 63.9658 9.56916 63.8567 9.32604 63.8396Z" fill="#344456"/>
<path d="M14.037 66.4336C13.7821 66.4336 13.5375 66.5352 13.3573 66.716C13.177 66.8969 13.0757 67.1421 13.0757 67.3979V69.905C13.1278 70.1135 13.2478 70.2986 13.4168 70.4308C13.5857 70.5631 13.7939 70.6349 14.0082 70.6349C14.2225 70.6349 14.4306 70.5631 14.5996 70.4308C14.7685 70.2986 14.8886 70.1135 14.9407 69.905V67.3979C14.9411 67.1519 14.8478 66.915 14.6798 66.7357C14.5118 66.5564 14.2819 66.4484 14.037 66.4336Z" fill="#344456"/>
<path d="M49.1639 63.8396C48.909 63.8396 48.6644 63.9412 48.4842 64.122C48.3039 64.3029 48.2026 64.5481 48.2026 64.8039V67.4075C48.1638 67.5505 48.1585 67.7005 48.1869 67.8459C48.2154 67.9914 48.2768 68.1283 48.3666 68.246C48.4563 68.3637 48.5719 68.4591 48.7043 68.5248C48.8368 68.5905 48.9825 68.6246 49.1303 68.6246C49.278 68.6246 49.4238 68.5905 49.5562 68.5248C49.6887 68.4591 49.8043 68.3637 49.894 68.246C49.9837 68.1283 50.0452 67.9914 50.0736 67.8459C50.1021 67.7005 50.0967 67.5505 50.058 67.4075V64.8039C50.0586 64.5594 49.9666 64.3238 49.8006 64.1448C49.6346 63.9658 49.4071 63.8567 49.1639 63.8396Z" fill="#344456"/>
<path d="M44.4535 66.4336C44.1985 66.4336 43.954 66.5352 43.7737 66.716C43.5934 66.8969 43.4921 67.1421 43.4921 67.3979V69.905C43.4534 70.048 43.448 70.1981 43.4765 70.3435C43.5049 70.4889 43.5664 70.6258 43.6561 70.7436C43.7458 70.8613 43.8614 70.9567 43.9939 71.0224C44.1263 71.088 44.2721 71.1222 44.4198 71.1222C44.5676 71.1222 44.7133 71.088 44.8458 71.0224C44.9782 70.9567 45.0938 70.8613 45.1836 70.7436C45.2733 70.6258 45.3348 70.4889 45.3632 70.3435C45.3916 70.1981 45.3863 70.048 45.3475 69.905V67.3979C45.3481 67.1534 45.2561 66.9178 45.0901 66.7388C44.9242 66.5598 44.6966 66.4507 44.4535 66.4336Z" fill="#344456"/>
<path d="M36.4167 58.2757H21.564C21.4215 58.2368 21.2719 58.2314 21.1269 58.26C20.9819 58.2885 20.8454 58.3502 20.7281 58.4402C20.6107 58.5302 20.5156 58.6461 20.4501 58.779C20.3846 58.9118 20.3506 59.058 20.3506 59.2062C20.3506 59.3544 20.3846 59.5006 20.4501 59.6335C20.5156 59.7663 20.6107 59.8823 20.7281 59.9723C20.8454 60.0623 20.9819 60.124 21.1269 60.1525C21.2719 60.181 21.4215 60.1756 21.564 60.1368H36.4167C36.6204 60.0812 36.8001 59.9601 36.9283 59.7919C37.0565 59.6237 37.1259 59.4179 37.1259 59.2062C37.1259 58.9945 37.0565 58.7887 36.9283 58.6206C36.8001 58.4524 36.6204 58.3312 36.4167 58.2757Z" fill="#2563EB"/>
</g>
<defs>
<linearGradient id="paint0_linear_75_260" x1="17.6048" y1="2.82581" x2="86.5968" y2="94.1806" gradientUnits="userSpaceOnUse">
<stop stop-color="#2749C9"/>
<stop offset="1" stop-color="white" stop-opacity="0"/>
</linearGradient>
<clipPath id="clip0_75_260">
<rect width="46" height="54" fill="white" transform="translate(6 20.4468)"/>
</clipPath>
</defs>
</svg>
