<svg width="56" height="45" viewBox="0 0 56 45" fill="none" xmlns="http://www.w3.org/2000/svg">
<g clip-path="url(#clip0_75_236)">
<path d="M47 26.5217C46.7348 26.5217 46.4804 26.627 46.2929 26.8146C46.1054 27.0021 46 27.2565 46 27.5217V34.0817C46.0014 34.1333 45.9922 34.1846 45.9731 34.2325C45.954 34.2805 45.9253 34.324 45.8888 34.3605C45.8523 34.397 45.8088 34.4257 45.7609 34.4448C45.7129 34.4639 45.6616 34.4731 45.61 34.4717H2.39C2.33841 34.4731 2.28708 34.4639 2.23914 34.4448C2.1912 34.4257 2.14766 34.397 2.11116 34.3605C2.07467 34.324 2.04599 34.2805 2.02688 34.2325C2.00777 34.1846 1.99862 34.1333 2 34.0817V8.86168C2 8.75825 2.04109 8.65905 2.11423 8.58591C2.18737 8.51277 2.28657 8.47168 2.39 8.47168H9.84C10.1052 8.47168 10.3596 8.36632 10.5471 8.17879C10.7346 7.99125 10.84 7.7369 10.84 7.47168C10.84 7.20646 10.7346 6.95211 10.5471 6.76457C10.3596 6.57704 10.1052 6.47168 9.84 6.47168H2.39C1.75613 6.47168 1.14823 6.72348 0.700015 7.17169C0.251803 7.61991 0 8.22781 0 8.86168L0 34.0817C0 34.7155 0.251803 35.3235 0.700015 35.7717C1.14823 36.2199 1.75613 36.4717 2.39 36.4717H16.15C16.9456 36.4717 17.7087 36.7878 18.2713 37.3504C18.8339 37.913 19.15 38.676 19.15 39.4717C19.15 40.2673 18.8339 41.0304 18.2713 41.593C17.7087 42.1556 16.9456 42.4717 16.15 42.4717C15.8848 42.4717 15.6304 42.577 15.4429 42.7646C15.2554 42.9521 15.15 43.2065 15.15 43.4717C15.15 43.7369 15.2554 43.9912 15.4429 44.1788C15.6304 44.3663 15.8848 44.4717 16.15 44.4717H32.15C32.4152 44.4717 32.6696 44.3663 32.8571 44.1788C33.0446 43.9912 33.15 43.7369 33.15 43.4717C33.15 43.2065 33.0446 42.9521 32.8571 42.7646C32.6696 42.577 32.4152 42.4717 32.15 42.4717C31.3544 42.4717 30.5913 42.1556 30.0287 41.593C29.4661 41.0304 29.15 40.2673 29.15 39.4717C29.15 38.676 29.4661 37.913 30.0287 37.3504C30.5913 36.7878 31.3544 36.4717 32.15 36.4717H45.61C46.2439 36.4717 46.8518 36.2199 47.3 35.7717C47.7482 35.3235 48 34.7155 48 34.0817V27.5217C48 27.2565 47.8946 27.0021 47.7071 26.8146C47.5196 26.627 47.2652 26.5217 47 26.5217ZM28.15 42.5217H20.15C20.7991 41.6562 21.15 40.6035 21.15 39.5217C21.15 38.4398 20.7991 37.3872 20.15 36.5217H28.15C27.5009 37.3872 27.15 38.4398 27.15 39.5217C27.15 40.6035 27.5009 41.6562 28.15 42.5217Z" fill="#2563EB"/>
<path d="M55 2.47168H37C34.0826 2.47168 31.2847 3.63061 29.2218 5.69351C27.1589 7.75641 26 10.5543 26 13.4717C26 16.3891 27.1589 19.187 29.2218 21.2499C31.2847 23.3128 34.0826 24.4717 37 24.4717H45C47.9174 24.4717 50.7153 23.3128 52.7782 21.2499C54.8411 19.187 56 16.3891 56 13.4717V3.47168C56 3.20646 55.8946 2.95211 55.7071 2.76457C55.5196 2.57704 55.2652 2.47168 55 2.47168ZM54 13.4717C54 15.8586 53.0518 18.1478 51.364 19.8356C49.6761 21.5235 47.3869 22.4717 45 22.4717H37C34.6131 22.4717 32.3239 21.5235 30.636 19.8356C28.9482 18.1478 28 15.8586 28 13.4717C28 11.0847 28.9482 8.79555 30.636 7.10772C32.3239 5.41989 34.6131 4.47168 37 4.47168H54V13.4717Z" fill="#2563EB" fill-opacity="0.26"/>
<path d="M35 9.65161C35 9.91683 35.1054 10.1712 35.2929 10.3587C35.4804 10.5463 35.7348 10.6516 36 10.6516H41C41.2652 10.6516 41.5196 10.5463 41.7071 10.3587C41.8946 10.1712 42 9.91683 42 9.65161C42 9.38639 41.8946 9.13204 41.7071 8.9445C41.5196 8.75697 41.2652 8.65161 41 8.65161H36C35.7348 8.65161 35.4804 8.75697 35.2929 8.9445C35.1054 9.13204 35 9.38639 35 9.65161Z" fill="#2563EB"/>
<path d="M40 16.6816C40 16.9469 40.1054 17.2012 40.2929 17.3887C40.4804 17.5763 40.7348 17.6816 41 17.6816H47.59C47.8552 17.6816 48.1096 17.5763 48.2971 17.3887C48.4846 17.2012 48.59 16.9469 48.59 16.6816C48.59 16.4164 48.4846 16.1621 48.2971 15.9745C48.1096 15.787 47.8552 15.6816 47.59 15.6816H41C40.7348 15.6816 40.4804 15.787 40.2929 15.9745C40.1054 16.1621 40 16.4164 40 16.6816Z" fill="#2563EB"/>
<path d="M10.89 22.2717C11.0462 22.3685 11.2262 22.4204 11.41 22.4217C11.6531 22.4213 11.8877 22.3325 12.07 22.1717L17.17 17.7017C17.2372 17.641 17.2946 17.5701 17.34 17.4917L25.73 3.84168C25.7994 3.72952 25.8459 3.60475 25.8668 3.47455C25.8878 3.34434 25.8828 3.21128 25.8521 3.08301C25.8215 2.95475 25.7657 2.83382 25.6881 2.72718C25.6105 2.62055 25.5126 2.53031 25.4 2.46168L22 0.37168C21.8896 0.297387 21.7656 0.245854 21.6351 0.220098C21.5046 0.194341 21.3703 0.194879 21.24 0.22168C21.1121 0.252255 20.9916 0.307738 20.8852 0.384953C20.7788 0.462169 20.6887 0.559602 20.62 0.67168L12.25 14.3317C12.2181 14.388 12.1945 14.4486 12.18 14.5117C12.1782 14.545 12.1782 14.5784 12.18 14.6117L10.44 21.2217C10.3988 21.4217 10.4198 21.6295 10.5003 21.8173C10.5807 22.005 10.7167 22.1636 10.89 22.2717ZM21.8 2.60168L23.5 3.60168L16.18 15.5717L14.47 14.5717L21.8 2.60168ZM13.73 16.4217L14.83 17.0917L13.19 18.5317L13.73 16.4217Z" fill="#2563EB" fill-opacity="0.26"/>
<path d="M10.7999 24.5317C10.5492 24.4457 10.2747 24.4627 10.0366 24.5789C9.79845 24.6952 9.6162 24.9012 9.52985 25.1517C9.42985 25.4317 8.61985 27.9517 10.1299 29.5717C10.5351 29.9653 11.019 30.2686 11.5499 30.4616C12.0808 30.6546 12.6465 30.7331 13.2099 30.6917C14.1804 30.6734 15.1447 30.5323 16.0799 30.2717C18.4953 29.6092 20.9651 29.1641 23.4599 28.9417C23.7235 28.9212 23.9684 28.7972 24.1408 28.5966C24.3132 28.3961 24.3992 28.1354 24.3799 27.8717C24.3594 27.608 24.2353 27.3632 24.0348 27.1908C23.8343 27.0183 23.5736 26.9324 23.3099 26.9517C20.6938 27.1793 18.1034 27.6412 15.5699 28.3317C13.5699 28.8617 12.1699 28.8217 11.5699 28.2217C10.9699 27.6217 11.2499 26.2217 11.3899 25.7917C11.4743 25.5462 11.46 25.2774 11.3499 25.0423C11.2398 24.8071 11.0425 24.624 10.7999 24.5317Z" fill="#2563EB" fill-opacity="0.26"/>
</g>
<defs>
<clipPath id="clip0_75_236">
<rect width="56" height="44.25" fill="white" transform="translate(0 0.22168)"/>
</clipPath>
</defs>
</svg>
