<svg width="109" height="19" viewBox="0 0 109 19" fill="none" xmlns="http://www.w3.org/2000/svg">
<path d="M13.6319 11.1579C13.448 11.3361 13.3634 11.5939 13.4053 11.8468L14.0367 15.341C14.09 15.6371 13.965 15.9369 13.7171 16.108C13.4742 16.2856 13.1511 16.3069 12.8862 16.1648L9.74067 14.5242C9.6313 14.466 9.50985 14.4348 9.38556 14.4312H9.1931C9.12634 14.4412 9.061 14.4625 9.00134 14.4951L5.85511 16.1435C5.69958 16.2216 5.52345 16.2493 5.35087 16.2216C4.93042 16.1421 4.64989 15.7415 4.71878 15.319L5.35087 11.8247C5.39277 11.5698 5.30825 11.3106 5.12431 11.1294L2.55974 8.64372C2.34526 8.43562 2.27069 8.12313 2.3687 7.84118C2.46386 7.55994 2.70676 7.35469 3.00007 7.30852L6.52981 6.79646C6.79827 6.76876 7.03406 6.60542 7.1548 6.36394L8.71016 3.1751C8.74709 3.10408 8.79467 3.03874 8.8522 2.98335L8.91612 2.93363C8.9495 2.8967 8.98785 2.86616 9.03046 2.84131L9.10787 2.8129L9.22861 2.76318H9.52761C9.79464 2.79088 10.0297 2.95068 10.1526 3.18931L11.7285 6.36394C11.8422 6.59618 12.0631 6.7574 12.318 6.79646L15.8478 7.30852C16.146 7.35114 16.3953 7.5571 16.494 7.84118C16.5871 8.12597 16.5068 8.43847 16.2881 8.64372L13.6319 11.1579Z" fill="#FFD05A"/>
<path d="M36.359 11.1579C36.175 11.3361 36.0905 11.5939 36.1324 11.8468L36.7638 15.341C36.817 15.6371 36.692 15.9369 36.4442 16.108C36.2013 16.2856 35.8781 16.3069 35.6132 16.1648L32.4677 14.5242C32.3583 14.466 32.2369 14.4348 32.1126 14.4312H31.9201C31.8534 14.4412 31.788 14.4625 31.7284 14.4951L28.5822 16.1435C28.4266 16.2216 28.2505 16.2493 28.0779 16.2216C27.6575 16.1421 27.3769 15.7415 27.4458 15.319L28.0779 11.8247C28.1198 11.5698 28.0353 11.3106 27.8514 11.1294L25.2868 8.64372C25.0723 8.43562 24.9977 8.12313 25.0957 7.84118C25.1909 7.55994 25.4338 7.35469 25.7271 7.30852L29.2569 6.79646C29.5253 6.76876 29.7611 6.60542 29.8818 6.36394L31.4372 3.1751C31.4741 3.10408 31.5217 3.03874 31.5792 2.98335L31.6432 2.93363C31.6765 2.8967 31.7149 2.86616 31.7575 2.84131L31.8349 2.8129L31.9557 2.76318H32.2547C32.5217 2.79088 32.7568 2.95068 32.8796 3.18931L34.4556 6.36394C34.5692 6.59618 34.7901 6.7574 35.0451 6.79646L38.5748 7.30852C38.8731 7.35114 39.1224 7.5571 39.2211 7.84118C39.3141 8.12597 39.2339 8.43847 39.0151 8.64372L36.359 11.1579Z" fill="#FFD05A"/>
<path d="M59.0855 11.1579C58.9016 11.3361 58.8171 11.5939 58.859 11.8468L59.4903 15.341C59.5436 15.6371 59.4186 15.9369 59.1707 16.108C58.9279 16.2856 58.6047 16.3069 58.3398 16.1648L55.1943 14.5242C55.0849 14.466 54.9635 14.4348 54.8392 14.4312H54.6467C54.58 14.4412 54.5146 14.4625 54.455 14.4951L51.3087 16.1435C51.1532 16.2216 50.9771 16.2493 50.8045 16.2216C50.384 16.1421 50.1035 15.7415 50.1724 15.319L50.8045 11.8247C50.8464 11.5698 50.7619 11.3106 50.5779 11.1294L48.0134 8.64372C47.7989 8.43562 47.7243 8.12313 47.8223 7.84118C47.9175 7.55994 48.1604 7.35469 48.4537 7.30852L51.9834 6.79646C52.2519 6.76876 52.4877 6.60542 52.6084 6.36394L54.1638 3.1751C54.2007 3.10408 54.2483 3.03874 54.3058 2.98335L54.3697 2.93363C54.4031 2.8967 54.4415 2.86616 54.4841 2.84131L54.5615 2.8129L54.6822 2.76318H54.9812C55.2483 2.79088 55.4833 2.95068 55.6062 3.18931L57.1822 6.36394C57.2958 6.59618 57.5167 6.7574 57.7716 6.79646L61.3014 7.30852C61.5997 7.35114 61.8489 7.5571 61.9477 7.84118C62.0407 8.12597 61.9604 8.43847 61.7417 8.64372L59.0855 11.1579Z" fill="#FFD05A"/>
<path d="M81.8116 11.1579C81.6276 11.3361 81.5431 11.5939 81.585 11.8468L82.2164 15.341C82.2697 15.6371 82.1447 15.9369 81.8968 16.108C81.6539 16.2856 81.3308 16.3069 81.0659 16.1648L77.9204 14.5242C77.811 14.466 77.6895 14.4348 77.5653 14.4312H77.3728C77.306 14.4412 77.2407 14.4625 77.181 14.4951L74.0348 16.1435C73.8793 16.2216 73.7031 16.2493 73.5306 16.2216C73.1101 16.1421 72.8296 15.7415 72.8985 15.319L73.5306 11.8247C73.5725 11.5698 73.4879 11.3106 73.304 11.1294L70.7394 8.64372C70.5249 8.43562 70.4504 8.12313 70.5484 7.84118C70.6436 7.55994 70.8864 7.35469 71.1798 7.30852L74.7095 6.79646C74.978 6.76876 75.2137 6.60542 75.3345 6.36394L76.8898 3.1751C76.9268 3.10408 76.9744 3.03874 77.0319 2.98335L77.0958 2.93363C77.1292 2.8967 77.1675 2.86616 77.2101 2.84131L77.2876 2.8129L77.4083 2.76318H77.7073C77.9743 2.79088 78.2094 2.95068 78.3323 3.18931L79.9082 6.36394C80.0219 6.59618 80.2427 6.7574 80.4977 6.79646L84.0274 7.30852C84.3257 7.35114 84.575 7.5571 84.6737 7.84118C84.7668 8.12597 84.6865 8.43847 84.4678 8.64372L81.8116 11.1579Z" fill="#FFD05A" fill-opacity="0.3"/>
<path d="M104.539 11.1579C104.355 11.3361 104.271 11.5939 104.313 11.8468L104.944 15.341C104.997 15.6371 104.872 15.9369 104.624 16.108C104.381 16.2856 104.058 16.3069 103.793 16.1648L100.648 14.5242C100.539 14.466 100.417 14.4348 100.293 14.4312H100.1C100.034 14.4412 99.9682 14.4625 99.9086 14.4951L96.7623 16.1435C96.6068 16.2216 96.4307 16.2493 96.2581 16.2216C95.8376 16.1421 95.5571 15.7415 95.626 15.319L96.2581 11.8247C96.3 11.5698 96.2155 11.3106 96.0315 11.1294L93.467 8.64372C93.2525 8.43562 93.1779 8.12313 93.2759 7.84118C93.3711 7.55994 93.614 7.35469 93.9073 7.30852L97.437 6.79646C97.7055 6.76876 97.9413 6.60542 98.062 6.36394L99.6174 3.1751C99.6543 3.10408 99.7019 3.03874 99.7594 2.98335L99.8233 2.93363C99.8567 2.8967 99.8951 2.86616 99.9377 2.84131L100.015 2.8129L100.136 2.76318H100.435C100.702 2.79088 100.937 2.95068 101.06 3.18931L102.636 6.36394C102.749 6.59618 102.97 6.7574 103.225 6.79646L106.755 7.30852C107.053 7.35114 107.303 7.5571 107.401 7.84118C107.494 8.12597 107.414 8.43847 107.195 8.64372L104.539 11.1579Z" fill="#FFD05A" fill-opacity="0.3"/>
</svg>
