<svg width="48" height="57" viewBox="0 0 48 57" fill="none" xmlns="http://www.w3.org/2000/svg">
<g clip-path="url(#clip0_75_227)">
<path d="M33.52 35.294H14.52C12.6158 35.2913 10.7298 35.6664 8.96957 36.3979C7.20934 37.1293 5.6094 38.2028 4.26109 39.557C2.91278 40.9112 1.84252 42.5196 1.1114 44.2904C0.380278 46.0612 0.00262463 47.9596 0 49.8774V55.8397C0 56.1068 0.105357 56.363 0.292893 56.5518C0.48043 56.7407 0.734784 56.8468 1 56.8468H47C47.2652 56.8468 47.5196 56.7407 47.7071 56.5518C47.8946 56.363 48 56.1068 48 55.8397V49.8774C47.9947 46.0113 46.4674 42.305 43.7531 39.5712C41.0387 36.8375 37.3587 35.2993 33.52 35.294ZM29.1 37.3082C28.8757 38.5053 28.2434 39.5858 27.3122 40.3632C26.381 41.1406 25.2095 41.5661 24 41.5661C22.7905 41.5661 21.619 41.1406 20.6878 40.3632C19.7566 39.5858 19.1243 38.5053 18.9 37.3082H29.1ZM46 54.8325H2V49.8774C2.00529 46.5401 3.32395 43.3411 5.66701 40.9813C8.01007 38.6215 11.1864 37.2934 14.5 37.2881H16.9C17.1409 39.0119 17.9921 40.59 19.2967 41.732C20.6013 42.8739 22.2715 43.5027 24 43.5027C25.7285 43.5027 27.3987 42.8739 28.7033 41.732C30.0079 40.59 30.8591 39.0119 31.1 37.2881H33.52C36.8301 37.2988 40.0013 38.6292 42.3401 40.9884C44.6788 43.3476 45.9947 46.5436 46 49.8774V54.8325Z" fill="#2563EB"/>
<path d="M16.4698 19.5019C17.3902 19.8662 18.371 20.0508 19.3598 20.0457C21.3474 20.0793 23.2674 19.3189 24.6998 17.9307C26.6998 15.9164 30.6998 17.2257 32.1598 17.8501C32.1917 18.1546 32.2084 18.4605 32.2098 18.7666V23.4096C32.2102 23.8138 32.1835 24.2176 32.1298 24.6181C32.1112 24.761 32.1233 24.9061 32.1651 25.0439C32.207 25.1816 32.2777 25.3087 32.3725 25.4166C32.4672 25.5244 32.5839 25.6106 32.7146 25.6692C32.8452 25.7278 32.9868 25.7574 33.1298 25.7562C33.3755 25.758 33.6132 25.6686 33.7977 25.5052C33.9821 25.3417 34.1004 25.1156 34.1298 24.8699C34.1987 24.3998 34.2321 23.9251 34.2298 23.4499V18.7666C34.2287 17.3308 33.9288 15.9111 33.3493 14.5992C32.7698 13.2872 31.9237 12.1122 30.8656 11.15C29.8074 10.1877 28.5607 9.45951 27.2059 9.01241C25.8511 8.56531 24.4182 8.40923 22.9998 8.55422C20.444 8.84603 18.0867 10.0832 16.3851 12.0259C14.6834 13.9686 13.7586 16.4784 13.7898 19.0688V23.4096C13.7927 25.901 14.6935 28.3066 16.325 30.1794C17.9564 32.0522 20.2075 33.2648 22.6598 33.5918C22.8016 33.6105 22.9458 33.5984 23.0825 33.5562C23.2193 33.5141 23.3455 33.4429 23.4526 33.3474C23.5597 33.252 23.6452 33.1345 23.7034 33.0029C23.7616 32.8713 23.791 32.7287 23.7898 32.5846C23.775 32.3661 23.6899 32.1585 23.5473 31.9931C23.4047 31.8277 23.2125 31.7136 22.9998 31.6681C21.0166 31.4134 19.1936 30.4394 17.872 28.9285C16.5504 27.4177 15.8208 25.4735 15.8198 23.4599V19.1494C16.0303 19.278 16.2473 19.3957 16.4698 19.5019ZM23.9998 10.5181C25.6091 10.5233 27.1816 11.0029 28.5232 11.8978C29.8649 12.7927 30.9171 14.0637 31.5498 15.5539C29.2598 14.8287 25.6398 14.2144 23.2998 16.561C22.4929 17.2999 21.4975 17.7977 20.4254 17.9987C19.3533 18.1998 18.2467 18.096 17.2298 17.6991C16.5498 17.4171 16.1298 17.0142 16.0798 16.6416C16.5496 14.8869 17.5796 13.3367 19.0109 12.23C20.4423 11.1234 22.1954 10.5218 23.9998 10.5181Z" fill="#2563EB"/>
<path d="M23.9998 47.7825H15.0698C14.8046 47.7825 14.5503 47.8886 14.3627 48.0775C14.1752 48.2663 14.0698 48.5225 14.0698 48.7896C14.0698 49.0567 14.1752 49.3129 14.3627 49.5018C14.5503 49.6906 14.8046 49.7968 15.0698 49.7968H23.9998C24.265 49.7968 24.5194 49.6906 24.7069 49.5018C24.8945 49.3129 24.9998 49.0567 24.9998 48.7896C24.9998 48.5225 24.8945 48.2663 24.7069 48.0775C24.5194 47.8886 24.265 47.7825 23.9998 47.7825Z" fill="#2563EB"/>
<path d="M9.99982 47.7825H7.31982C7.05461 47.7825 6.80025 47.8886 6.61272 48.0775C6.42518 48.2663 6.31982 48.5225 6.31982 48.7896C6.31982 49.0567 6.42518 49.3129 6.61272 49.5018C6.80025 49.6906 7.05461 49.7968 7.31982 49.7968H9.99982C10.265 49.7968 10.5194 49.6906 10.7069 49.5018C10.8945 49.3129 10.9998 49.0567 10.9998 48.7896C10.9998 48.5225 10.8945 48.2663 10.7069 48.0775C10.5194 47.8886 10.265 47.7825 9.99982 47.7825Z" fill="#2563EB"/>
<path d="M9.9998 30.4999H10.3698C10.635 30.4999 10.8894 30.3938 11.0769 30.205C11.2644 30.0161 11.3698 29.7599 11.3698 29.4928V17.82C11.3698 17.5529 11.2644 17.2967 11.0769 17.1079C10.8894 16.919 10.635 16.8129 10.3698 16.8129H9.9998C9.5287 16.815 9.05924 16.8691 8.5998 16.974C9.00896 13.6076 10.4976 10.4675 12.8398 8.03059C12.8998 8.10109 12.9498 8.19173 13.0098 8.26223C13.4666 8.78049 14.0952 9.1134 14.778 9.19867C15.4609 9.28394 16.1512 9.11573 16.7198 8.72552C18.8837 7.26501 21.4299 6.48523 24.0348 6.48523C26.6397 6.48523 29.1859 7.26501 31.3498 8.72552C31.8212 9.04042 32.3742 9.20855 32.9398 9.20895C33.3285 9.20315 33.712 9.11702 34.0663 8.95591C34.4207 8.79479 34.7384 8.56212 34.9998 8.2723C35.0653 8.19605 35.1255 8.11528 35.1798 8.03059C37.5238 10.4662 39.0128 13.6069 39.4198 16.974C38.9604 16.8691 38.4909 16.815 38.0198 16.8129H37.6498C37.3846 16.8129 37.1302 16.919 36.9427 17.1079C36.7552 17.2967 36.6498 17.5529 36.6498 17.82V29.2612C36.2411 29.5569 35.7842 29.7785 35.2998 29.9158C34.8353 29.2698 34.2153 28.7534 33.498 28.4151C32.7808 28.0768 31.9899 27.9278 31.1998 27.9821C28.7198 27.9821 26.7798 29.3619 26.7798 31.1143C26.7798 32.8667 28.7198 34.2566 31.1998 34.2566C33.2598 34.2566 34.9298 33.2494 35.4498 31.9704C36.5169 31.7334 37.5053 31.2235 38.3198 30.4899C39.9674 30.4098 41.5214 29.695 42.6605 28.4935C43.7996 27.2919 44.4366 25.6954 44.4398 24.0341V23.2787C44.4324 22.1916 44.1537 21.1238 43.6295 20.1735C43.1053 19.2232 42.3523 18.4208 41.4398 17.8402C41.185 13.2468 39.1531 8.937 35.7798 5.83502C35.7293 5.39658 35.5841 4.9746 35.3543 4.59876C35.1246 4.22292 34.8158 3.90235 34.4498 3.65959C31.358 1.57425 27.7209 0.460937 23.9998 0.460938C20.2788 0.460937 16.6416 1.57425 13.5498 3.65959C13.1838 3.90235 12.8751 4.22292 12.6453 4.59876C12.4155 4.9746 12.2703 5.39658 12.2198 5.83502C8.82781 8.92947 6.77443 13.2391 6.4998 17.8402C5.59654 18.4268 4.85341 19.2317 4.33815 20.1816C3.82288 21.1316 3.55187 22.1963 3.5498 23.2787V24.0341C3.55112 24.8854 3.71906 25.728 4.04404 26.5139C4.36901 27.2997 4.84464 28.0133 5.44371 28.6139C6.04278 29.2144 6.75354 29.6901 7.53532 30.0138C8.3171 30.3374 9.15456 30.5026 9.9998 30.4999ZM31.2398 32.2423C29.7798 32.2423 28.8198 31.5675 28.8198 31.1143C28.8198 30.6611 29.8198 29.9964 31.2398 29.9964C32.6598 29.9964 33.6698 30.6712 33.6698 31.1143C33.6698 31.5574 32.6698 32.2423 31.2098 32.2423H31.2398ZM42.4798 24.0341C42.479 25.1051 42.0956 26.1401 41.3998 26.95C40.7039 27.7599 39.7421 28.2906 38.6898 28.4454V18.8775C39.7412 19.03 40.703 19.5588 41.3989 20.367C42.0949 21.1752 42.4786 22.2089 42.4798 23.2787V24.0341ZM14.6498 5.32137C17.4155 3.45386 20.67 2.45672 23.9998 2.45672C27.3296 2.45672 30.5841 3.45386 33.3498 5.32137C33.4723 5.40732 33.5754 5.51835 33.6524 5.64722C33.7293 5.77608 33.7784 5.91986 33.7963 6.06914C33.8142 6.21842 33.8007 6.36983 33.7565 6.51346C33.7123 6.65709 33.6384 6.78969 33.5398 6.90259C33.4607 6.99265 33.3638 7.06514 33.2553 7.11542C33.1469 7.16571 33.0292 7.19269 32.9098 7.19466C32.7352 7.19437 32.5646 7.14179 32.4198 7.04359C29.9307 5.3627 27.0016 4.4652 24.0048 4.4652C21.008 4.4652 18.0789 5.3627 15.5898 7.04359C15.4442 7.14018 15.2741 7.19262 15.0998 7.19466C14.9803 7.19331 14.8624 7.16661 14.7539 7.11628C14.6453 7.06595 14.5485 6.99314 14.4698 6.90259C14.3736 6.78903 14.3016 6.65673 14.2583 6.51392C14.215 6.37112 14.2014 6.22088 14.2183 6.07255C14.2352 5.92422 14.2822 5.78098 14.3564 5.65174C14.4307 5.52251 14.5305 5.41005 14.6498 5.32137ZM5.5498 23.2787C5.55098 22.2089 5.93467 21.1752 6.63067 20.367C7.32666 19.5588 8.28838 19.03 9.3398 18.8775V28.4454C8.28755 28.2906 7.32566 27.7599 6.62983 26.95C5.934 26.1401 5.55065 25.1051 5.5498 24.0341V23.2787Z" fill="#2563EB" fill-opacity="0.26"/>
</g>
<defs>
<clipPath id="clip0_75_227">
<rect width="48" height="56.4" fill="white" transform="translate(0 0.446777)"/>
</clipPath>
</defs>
</svg>
