<svg width="48" height="49" viewBox="0 0 48 49" fill="none" xmlns="http://www.w3.org/2000/svg">
<g clip-path="url(#clip0_75_210)">
<path d="M29.846 14.9666C27.5214 13.5328 24.7511 13.0026 22.0614 13.4769C19.3716 13.9512 16.9497 15.3969 15.2557 17.5394C13.5617 19.6818 12.7136 22.3718 12.8724 25.0984C13.0312 27.8251 14.1859 30.3984 16.1172 32.3297C18.0485 34.261 20.6218 35.4157 23.3485 35.5745C26.0751 35.7333 28.7651 34.8852 30.9075 33.1912C33.05 31.4972 34.4956 29.0753 34.9699 26.3855C35.4442 23.6958 34.9141 20.9255 33.4803 18.6009L32.2289 19.8523C33.0182 21.2547 33.4316 22.8373 33.4289 24.4466C33.4289 26.3114 32.8759 28.1343 31.8399 29.6848C30.8039 31.2353 29.3313 32.4438 27.6085 33.1574C25.8856 33.8711 23.9899 34.0578 22.1609 33.694C20.3319 33.3302 18.6519 32.4322 17.3333 31.1136C16.0147 29.795 15.1167 28.115 14.7529 26.286C14.3891 24.457 14.5758 22.5613 15.2895 20.8384C16.0031 19.1156 17.2116 17.643 18.7621 16.607C20.3126 15.571 22.1355 15.018 24.0003 15.018C25.6096 15.0153 27.1922 15.4287 28.5946 16.218L29.846 14.9666Z" fill="#2563EB"/>
<path d="M24.5996 20.2126C24.4015 20.1779 24.2007 20.1607 23.9996 20.1611C23.1519 20.1611 22.3234 20.4125 21.6186 20.8834C20.9138 21.3543 20.3645 22.0237 20.0401 22.8068C19.7157 23.5899 19.6309 24.4516 19.7962 25.283C19.9616 26.1143 20.3698 26.8779 20.9691 27.4773C21.5685 28.0767 22.3321 28.4849 23.1635 28.6502C23.9948 28.8156 24.8565 28.7307 25.6397 28.4063C26.4228 28.082 27.0921 27.5327 27.563 26.8279C28.0339 26.1231 28.2853 25.2945 28.2853 24.4469C28.2858 24.2457 28.2686 24.045 28.2339 23.8469L25.8167 26.264C25.4525 26.63 24.9866 26.8779 24.4796 26.9754C24.1621 27.0326 23.837 27.0326 23.5196 26.9754C23.0126 26.8779 22.5466 26.63 22.1824 26.264C21.7009 25.7819 21.4304 25.1283 21.4304 24.4469C21.4304 23.7654 21.7009 23.1119 22.1824 22.6297L24.5996 20.2126Z" fill="#2563EB"/>
<path d="M23.3912 25.0553C23.4709 25.1356 23.5657 25.1994 23.6702 25.2429C23.7746 25.2864 23.8867 25.3088 23.9998 25.3088C24.113 25.3088 24.225 25.2864 24.3294 25.2429C24.4339 25.1994 24.5287 25.1356 24.6084 25.0553L41.5712 8.09243L44.3398 7.53528C44.5051 7.50277 44.6571 7.42228 44.777 7.30386L46.5941 5.48671C46.6987 5.38529 46.7758 5.25887 46.818 5.11938C46.8602 4.97989 46.8661 4.83195 46.8353 4.68952C46.8044 4.5471 46.7377 4.41491 46.6415 4.30543C46.5453 4.19595 46.4228 4.11281 46.2855 4.06386L44.8798 3.59243L44.3827 2.161C44.3367 2.02176 44.2557 1.89665 44.1475 1.79763C44.0394 1.69862 43.9076 1.62901 43.7648 1.59547C43.6221 1.56193 43.4731 1.56558 43.3322 1.60607C43.1912 1.64655 43.063 1.72252 42.9598 1.82671L41.1427 3.66957C41.0242 3.78938 40.9437 3.94142 40.9112 4.10671L40.3541 6.87528L23.3912 23.8381C23.3109 23.9178 23.2471 24.0126 23.2036 24.1171C23.1601 24.2215 23.1377 24.3336 23.1377 24.4467C23.1377 24.5599 23.1601 24.6719 23.2036 24.7763C23.2471 24.8808 23.3109 24.9756 23.3912 25.0553ZM42.5398 4.73243L43.1912 4.07243L43.3627 4.57814C43.4048 4.70377 43.4755 4.81791 43.5692 4.9116C43.6629 5.0053 43.777 5.076 43.9027 5.11814L44.4084 5.28957L43.7141 5.90671L42.2055 6.21528L42.5398 4.73243Z" fill="#2563EB" fill-opacity="0.25"/>
<path d="M8.24559 9.87547C8.41009 9.97975 8.60519 10.0249 8.79878 10.0035C8.99236 9.98205 9.17288 9.89534 9.3106 9.75762C9.44832 9.6199 9.53503 9.43938 9.55645 9.2458C9.57787 9.05221 9.53272 8.85711 9.42845 8.69261L8.24559 7.47547C8.08419 7.31406 7.86528 7.22339 7.63702 7.22339C7.40876 7.22339 7.18985 7.31406 7.02845 7.47547C6.86704 7.63687 6.77637 7.85578 6.77637 8.08404C6.77637 8.3123 6.86704 8.53121 7.02845 8.69261L8.24559 9.87547Z" fill="#2563EB"/>
<path d="M39.7539 39.0183C39.6851 38.9098 39.5928 38.8182 39.4839 38.7501C39.3749 38.6821 39.252 38.6394 39.1243 38.6253C38.9966 38.6112 38.8673 38.6259 38.7461 38.6685C38.6249 38.7111 38.5148 38.7803 38.4239 38.8712C38.3331 38.962 38.2638 39.0721 38.2212 39.1934C38.1787 39.3146 38.1639 39.4438 38.1781 39.5715C38.1922 39.6992 38.2348 39.8221 38.3029 39.9311C38.3709 40.0401 38.4626 40.1324 38.5711 40.2012L39.7796 41.4183C39.8596 41.4983 39.9544 41.5617 40.0589 41.6049C40.1633 41.6482 40.2752 41.6704 40.3882 41.6704C40.5012 41.6704 40.6132 41.6482 40.7176 41.6049C40.822 41.5617 40.9169 41.4983 40.9968 41.4183C41.0767 41.3384 41.1401 41.2435 41.1834 41.1391C41.2266 41.0347 41.2489 40.9228 41.2489 40.8098C41.2489 40.6967 41.2266 40.5848 41.1834 40.4804C41.1401 40.376 41.0767 40.2811 40.9968 40.2012L39.7539 39.0183Z" fill="#2563EB"/>
<path d="M8.24559 39.0181L7.02845 40.201C6.94853 40.2809 6.88513 40.3758 6.84188 40.4802C6.79863 40.5846 6.77637 40.6965 6.77637 40.8095C6.77637 40.9225 6.79863 41.0345 6.84188 41.1389C6.88513 41.2433 6.94853 41.3382 7.02845 41.4181C7.10836 41.498 7.20324 41.5614 7.30766 41.6047C7.41208 41.6479 7.52399 41.6702 7.63702 41.6702C7.75004 41.6702 7.86195 41.6479 7.96637 41.6047C8.07079 41.5614 8.16567 41.498 8.24559 41.4181L9.42845 40.201C9.53696 40.1322 9.62862 40.0399 9.69665 39.9309C9.76468 39.8219 9.80734 39.699 9.82147 39.5713C9.8356 39.4436 9.82084 39.3143 9.77829 39.1931C9.73573 39.0719 9.66647 38.9618 9.57562 38.8709C9.48477 38.7801 9.37466 38.7108 9.25343 38.6683C9.1322 38.6257 9.00296 38.6109 8.87526 38.6251C8.74756 38.6392 8.62466 38.6819 8.51567 38.7499C8.40668 38.8179 8.31438 38.9096 8.24559 39.0181Z" fill="#2563EB"/>
<path d="M47.1429 23.5896H42C41.8299 20.0031 40.5911 16.5494 38.4429 13.6725L37.2171 14.8982C39.0622 17.4359 40.1285 20.456 40.2857 23.5896H39.1543C38.927 23.5896 38.7089 23.6799 38.5482 23.8407C38.3874 24.0014 38.2971 24.2194 38.2971 24.4468C38.2971 24.6741 38.3874 24.8921 38.5482 25.0529C38.7089 25.2136 38.927 25.3039 39.1543 25.3039H40.2857C40.0789 29.3289 38.387 33.1342 35.5372 35.984C32.6874 38.8338 28.8821 40.5257 24.8571 40.7325V39.6011C24.8571 39.3737 24.7668 39.1557 24.6061 38.995C24.4453 38.8342 24.2273 38.7439 24 38.7439C23.7727 38.7439 23.5547 38.8342 23.3939 38.995C23.2332 39.1557 23.1429 39.3737 23.1429 39.6011V40.7325C19.1255 40.5154 15.3307 38.819 12.4898 35.9702C9.64888 33.1214 7.96303 29.3219 7.75714 25.3039H8.84571C9.07304 25.3039 9.29106 25.2136 9.45181 25.0529C9.61255 24.8921 9.70286 24.6741 9.70286 24.4468C9.70286 24.2194 9.61255 24.0014 9.45181 23.8407C9.29106 23.6799 9.07304 23.5896 8.84571 23.5896H7.75714C7.97327 19.5793 9.66364 15.7902 12.5035 12.9503C15.3434 10.1104 19.1325 8.42005 23.1429 8.20392V9.29249C23.1429 9.51982 23.2332 9.73784 23.3939 9.89858C23.5547 10.0593 23.7727 10.1496 24 10.1496C24.2273 10.1496 24.4453 10.0593 24.6061 9.89858C24.7668 9.73784 24.8571 9.51982 24.8571 9.29249V8.16106C27.9908 8.31832 31.0108 9.38457 33.5486 11.2296L34.7743 10.0039C31.8973 7.85564 28.4436 6.61685 24.8571 6.44678V1.30392C24.8571 1.07659 24.7668 0.858574 24.6061 0.697829C24.4453 0.537083 24.2273 0.446777 24 0.446777C23.7727 0.446777 23.5547 0.537083 23.3939 0.697829C23.2332 0.858574 23.1429 1.07659 23.1429 1.30392V6.48963C18.6781 6.70781 14.4543 8.57945 11.2935 11.7403C8.13267 14.9011 6.26103 19.1249 6.04286 23.5896H0.857143C0.629814 23.5896 0.411797 23.6799 0.251051 23.8407C0.0903059 24.0014 0 24.2194 0 24.4468C0 24.6741 0.0903059 24.8921 0.251051 25.0529C0.411797 25.2136 0.629814 25.3039 0.857143 25.3039H6.04286C6.25069 29.7762 8.11777 34.0105 11.2796 37.1803C14.4415 40.3501 18.6711 42.2277 23.1429 42.4468V47.5896C23.1429 47.817 23.2332 48.035 23.3939 48.1957C23.5547 48.3565 23.7727 48.4468 24 48.4468C24.2273 48.4468 24.4453 48.3565 24.6061 48.1957C24.7668 48.035 24.8571 47.817 24.8571 47.5896V42.4468C29.3365 42.2381 33.5766 40.365 36.7474 37.1942C39.9182 34.0234 41.7913 29.7833 42 25.3039H47.1429C47.3702 25.3039 47.5882 25.2136 47.749 25.0529C47.9097 24.8921 48 24.6741 48 24.4468C48 24.2194 47.9097 24.0014 47.749 23.8407C47.5882 23.6799 47.3702 23.5896 47.1429 23.5896Z" fill="#2563EB"/>
</g>
<defs>
<clipPath id="clip0_75_210">
<rect width="48" height="48" fill="white" transform="translate(0 0.446777)"/>
</clipPath>
</defs>
</svg>
