<svg width="66" height="49" viewBox="0 0 66 49" fill="none" xmlns="http://www.w3.org/2000/svg">
<g clip-path="url(#clip0_75_187)">
<path d="M53.5208 34.6661H5.47436C5.18513 34.6723 4.89758 34.6206 4.62857 34.5142C4.35956 34.4078 4.11451 34.2487 3.9078 34.0464C3.70108 33.844 3.53686 33.6023 3.42477 33.3356C3.31268 33.0689 3.25498 32.7825 3.25504 32.4933V4.98999C3.2487 4.6968 3.30177 4.40537 3.41106 4.13325C3.52035 3.86112 3.68359 3.61393 3.89095 3.40657C4.09831 3.19921 4.34549 3.03597 4.61762 2.92669C4.88975 2.8174 5.18118 2.76433 5.47436 2.77067H53.5208C54.0971 2.77067 54.6498 2.99959 55.0573 3.40708C55.4648 3.81457 55.6937 4.36724 55.6937 4.94351V21.0829C55.6937 21.3911 55.8161 21.6867 56.034 21.9046C56.2519 22.1225 56.5475 22.2449 56.8556 22.2449C57.1638 22.2449 57.4593 22.1225 57.6772 21.9046C57.8952 21.6867 58.0176 21.3911 58.0176 21.0829V4.98999C58.0176 3.79306 57.5454 2.64447 56.7034 1.79377C55.8614 0.943081 54.7177 0.459022 53.5208 0.446777L5.47436 0.446777C4.26943 0.446777 3.11384 0.925436 2.26183 1.77745C1.40981 2.62947 0.931152 3.78505 0.931152 4.98999L0.931152 32.4933C0.931152 33.0899 1.04867 33.6807 1.27698 34.2319C1.5053 34.7831 1.83995 35.2839 2.26183 35.7058C2.6837 36.1277 3.18454 36.4623 3.73575 36.6906C4.28696 36.9189 4.87774 37.0365 5.47436 37.0365H20.3705C21.5133 37.1185 22.5826 37.6303 23.3632 38.4689C24.1438 39.3075 24.5778 40.4107 24.5778 41.5564C24.5778 42.7021 24.1438 43.8053 23.3632 44.644C22.5826 45.4826 21.5133 45.9944 20.3705 46.0764C20.0623 46.0764 19.7668 46.1988 19.5489 46.4167C19.331 46.6346 19.2086 46.9302 19.2086 47.2383C19.2086 47.5465 19.331 47.8421 19.5489 48.06C19.7668 48.2779 20.0623 48.4003 20.3705 48.4003H38.6247C38.9329 48.4003 39.2284 48.2779 39.4463 48.06C39.6642 47.8421 39.7866 47.5465 39.7866 47.2383C39.7866 46.9302 39.6642 46.6346 39.4463 46.4167C39.2284 46.1988 38.9329 46.0764 38.6247 46.0764C37.4819 45.9944 36.4126 45.4826 35.632 44.644C34.8514 43.8053 34.4174 42.7021 34.4174 41.5564C34.4174 40.4107 34.8514 39.3075 35.632 38.4689C36.4126 37.6303 37.4819 37.1185 38.6247 37.0365H53.5208C53.829 37.0365 54.1245 36.914 54.3425 36.6961C54.5604 36.4782 54.6828 36.1827 54.6828 35.8745C54.6828 35.5663 54.5604 35.2708 54.3425 35.0529C54.1245 34.835 53.829 34.7126 53.5208 34.7126V34.6661ZM33.6167 46.0764H25.332C26.3865 44.8062 26.9637 43.2073 26.9637 41.5564C26.9637 39.9056 26.3865 38.3067 25.332 37.0365H33.5818C32.5231 38.3047 31.9431 39.9044 31.9431 41.5564C31.9431 43.2085 32.5231 44.8082 33.5818 46.0764H33.6167Z" fill="#2563EB"/>
<path d="M11.8184 21.7684V27.4735C11.8184 27.7817 11.9408 28.0773 12.1587 28.2952C12.3766 28.5131 12.6721 28.6355 12.9803 28.6355C13.2885 28.6355 13.584 28.5131 13.8019 28.2952C14.0198 28.0773 14.1423 27.7817 14.1423 27.4735V21.7684C14.1423 21.4602 14.0198 21.1647 13.8019 20.9468C13.584 20.7289 13.2885 20.6064 12.9803 20.6064C12.6721 20.6064 12.3766 20.7289 12.1587 20.9468C11.9408 21.1647 11.8184 21.4602 11.8184 21.7684Z" fill="#2563EB"/>
<path d="M16.6289 19.491V27.4736C16.6289 27.7818 16.7513 28.0773 16.9692 28.2952C17.1871 28.5131 17.4827 28.6356 17.7909 28.6356C18.099 28.6356 18.3946 28.5131 18.6125 28.2952C18.8304 28.0773 18.9528 27.7818 18.9528 27.4736V19.491C18.9528 19.1829 18.8304 18.8873 18.6125 18.6694C18.3946 18.4515 18.099 18.3291 17.7909 18.3291C17.4827 18.3291 17.1871 18.4515 16.9692 18.6694C16.7513 18.8873 16.6289 19.1829 16.6289 19.491Z" fill="#2563EB"/>
<path d="M22.6131 16.0286C22.305 16.0286 22.0094 16.151 21.7915 16.3689C21.5736 16.5868 21.4512 16.8823 21.4512 17.1905V27.4621C21.4512 27.7703 21.5736 28.0658 21.7915 28.2837C22.0094 28.5016 22.305 28.6241 22.6131 28.6241C22.9213 28.6241 23.2168 28.5016 23.4347 28.2837C23.6526 28.0658 23.7751 27.7703 23.7751 27.4621V17.2021C23.7766 17.0486 23.7477 16.8962 23.69 16.7539C23.6323 16.6116 23.5469 16.4821 23.4389 16.373C23.3308 16.2639 23.2022 16.1772 23.0605 16.1181C22.9187 16.059 22.7667 16.0286 22.6131 16.0286Z" fill="#2563EB"/>
<path d="M66.0004 33.6902C65.938 33.3287 65.8028 32.9838 65.6031 32.6762C65.4033 32.3686 65.1432 32.1048 64.8384 31.9008L51.7897 23.314C53.0287 20.7501 53.2621 17.815 52.4439 15.0875C51.6256 12.36 49.8152 10.0381 47.3695 8.57957C44.9238 7.12103 42.0204 6.63175 39.2318 7.20821C36.4432 7.78467 33.9718 9.38502 32.3049 11.6937C30.6379 14.0024 29.8965 16.8518 30.2268 19.6802C30.557 22.5086 31.935 25.1105 34.089 26.973C36.243 28.8356 39.0167 29.8235 41.8631 29.7419C44.7095 29.6604 47.422 28.5153 49.4659 26.5326L61.5966 36.3045C61.8847 36.5347 62.2166 36.7039 62.5722 36.8018C62.9277 36.8997 63.2995 36.9242 63.6648 36.8739C64.3811 36.7576 65.0234 36.3655 65.4542 35.7817C65.6853 35.4899 65.8531 35.1534 65.9471 34.7933C66.0412 34.4333 66.0593 34.0576 66.0004 33.6902ZM48.9778 23.6858C47.7333 25.386 45.9378 26.6022 43.8972 27.1273C41.8567 27.6523 39.6972 27.4538 37.7865 26.5655C35.8759 25.6772 34.3323 24.154 33.4186 22.2553C32.5049 20.3567 32.2776 18.2001 32.7754 16.1527C33.2732 14.1053 34.4654 12.2938 36.1488 11.0267C37.8323 9.75954 39.903 9.11517 42.0082 9.2033C44.1134 9.29143 46.1229 10.1066 47.6946 11.51C49.2663 12.9134 50.3028 14.8182 50.6278 16.9C50.812 18.084 50.7611 19.2927 50.478 20.4571C50.1948 21.6214 49.6851 22.7185 48.9778 23.6858ZM63.6765 34.4803C63.635 34.539 63.5814 34.5881 63.5192 34.6242C63.457 34.6603 63.3878 34.6825 63.3163 34.6894C63.1759 34.7083 63.0338 34.6707 62.9212 34.5849L54.1717 27.5435L63.537 33.7366C63.656 33.8191 63.7391 33.9437 63.7694 34.0852C63.7817 34.1539 63.7798 34.2244 63.7638 34.2924C63.7478 34.3603 63.7181 34.4243 63.6765 34.4803Z" fill="#2563EB" fill-opacity="0.26"/>
<path d="M42.3198 12.136C42.1668 12.1458 42.0175 12.1874 41.8815 12.2581C41.7454 12.3287 41.6256 12.427 41.5297 12.5465C41.4337 12.6661 41.3637 12.8043 41.3241 12.9524C41.2845 13.1005 41.2762 13.2552 41.2997 13.4067C41.3232 13.5582 41.3779 13.7031 41.4605 13.8323C41.5431 13.9614 41.6517 14.072 41.7794 14.1568C41.9071 14.2417 42.051 14.299 42.202 14.3252C42.3531 14.3514 42.5079 14.3458 42.6567 14.3088C43.2128 14.2218 43.7808 14.3589 44.236 14.69C44.6912 15.021 44.9966 15.5191 45.0852 16.075C45.1957 16.2941 45.3727 16.4726 45.5909 16.585C45.8091 16.6973 46.0573 16.7376 46.2999 16.7002C46.5424 16.6628 46.7669 16.5495 46.9411 16.3767C47.1153 16.2038 47.2303 15.9802 47.2696 15.738C47.1819 15.1761 46.9842 14.6371 46.6878 14.1517C46.3914 13.6664 46.0021 13.2443 45.5422 12.9097C45.0824 12.5751 44.5611 12.3345 44.0081 12.2017C43.4551 12.069 42.8814 12.0466 42.3198 12.136Z" fill="#2563EB"/>
<path d="M25.2508 12.7867L26.5754 9.67267C26.6645 9.52128 26.7181 9.35166 26.7322 9.17657C26.7463 9.00147 26.7205 8.82546 26.6567 8.66178C26.5376 8.3732 26.3134 8.14062 26.0293 8.01109L22.8339 6.62837C22.6913 6.5681 22.5381 6.53652 22.3832 6.53543C22.2284 6.53434 22.0748 6.56377 21.9313 6.62204C21.7878 6.6803 21.6572 6.76626 21.5469 6.875C21.4366 6.98375 21.3488 7.11315 21.2886 7.25582C21.2283 7.39849 21.1967 7.55164 21.1956 7.70651C21.1945 7.86139 21.224 8.01496 21.2822 8.15846C21.3405 8.30197 21.4264 8.43259 21.5352 8.54287C21.6439 8.65315 21.7733 8.74094 21.916 8.80121L22.497 9.05684L9.62261 14.2507C9.47002 14.2797 9.32464 14.3385 9.19476 14.4237C9.06488 14.5088 8.95305 14.6188 8.86565 14.7472C8.68915 15.0065 8.62288 15.3253 8.68144 15.6335C8.73999 15.9416 8.91856 16.2139 9.17787 16.3904C9.43718 16.5669 9.75599 16.6332 10.0642 16.5746C10.2151 16.5748 10.3647 16.5472 10.5057 16.4933L23.2871 11.3226L23.0431 11.9152C22.9801 12.0569 22.946 12.2097 22.943 12.3647C22.9399 12.5197 22.9679 12.6737 23.0253 12.8177C23.0827 12.9617 23.1683 13.0928 23.2771 13.2032C23.3859 13.3136 23.5158 13.4011 23.6589 13.4606C23.8058 13.5232 23.964 13.5548 24.1237 13.5536C24.3684 13.5608 24.6091 13.4905 24.8115 13.3528C25.0139 13.2151 25.1677 13.0169 25.2508 12.7867Z" fill="#2563EB"/>
</g>
<defs>
<clipPath id="clip0_75_187">
<rect width="65.069" height="48" fill="white" transform="translate(0.931152 0.446777)"/>
</clipPath>
</defs>
</svg>
